<?xml version="1.0" standalone="no"?><!DOCTYPE svg PUBLIC "-//W3C//DTD SVG 1.1//EN" "http://www.w3.org/Graphics/SVG/1.1/DTD/svg11.dtd"><svg t="1550994283097" class="icon" style="" viewBox="0 0 1024 1024" version="1.1" xmlns="http://www.w3.org/2000/svg" p-id="2254" xmlns:xlink="http://www.w3.org/1999/xlink" width="200" height="200"><defs><style type="text/css"></style></defs><path d="M889.111096 0.035837H220.14459A131.830772 131.830772 0 0 0 85.32736 128.026878v90.020365H42.66368a42.66368 42.66368 0 0 0 0 85.327361h42.66368v170.654721H42.66368a42.66368 42.66368 0 0 0 0 85.32736h42.66368v170.654721H42.66368a42.66368 42.66368 0 0 0 0 85.32736h42.66368V895.973122a131.830772 131.830772 0 0 0 134.81723 127.991041h668.966506A131.830772 131.830772 0 0 0 1023.928325 895.973122V128.026878a131.830772 131.830772 0 0 0-134.817229-127.991041zM938.600965 895.973122a46.503411 46.503411 0 0 1-49.489869 42.66368H220.14459A46.503411 46.503411 0 0 1 170.654721 895.973122v-80.634356h42.66368a42.66368 42.66368 0 0 0 0-85.32736H170.654721v-170.654721h42.66368a42.66368 42.66368 0 0 0 0-85.32736H170.654721v-170.654721h42.66368a42.66368 42.66368 0 0 0 0-85.327361H170.654721V128.026878a46.503411 46.503411 0 0 1 49.489869-42.66368h668.966506A46.503411 46.503411 0 0 1 938.600965 128.026878z" p-id="2255" fill="#ffffff"></path><path d="M746.614404 397.2347h-85.327361l33.704308-42.66368a42.66368 42.66368 0 0 0-7.679463-59.729152 42.66368 42.66368 0 0 0-59.729152 8.106099L575.959683 368.650034l-51.196416-67.408614a42.66368 42.66368 0 0 0-76.794625 25.598208 42.66368 42.66368 0 0 0 8.532736 25.598208l33.704308 44.796864h-85.327361a42.66368 42.66368 0 0 0 0 85.327361h127.991041v49.916506h-85.327361a42.66368 42.66368 0 0 0 0 85.32736h85.327361v93.006823a42.66368 42.66368 0 0 0 85.32736 0v-93.006823h85.327361a42.66368 42.66368 0 0 0 0-85.32736h-85.327361v-49.916506h127.991041a42.66368 42.66368 0 0 0 0-85.327361z" p-id="2256" fill="#ffffff"></path></svg>