<?xml version="1.0" standalone="no"?><!DOCTYPE svg PUBLIC "-//W3C//DTD SVG 1.1//EN" "http://www.w3.org/Graphics/SVG/1.1/DTD/svg11.dtd"><svg t="1551001012774" class="icon" style="" viewBox="0 0 1024 1024" version="1.1" xmlns="http://www.w3.org/2000/svg" p-id="2757" xmlns:xlink="http://www.w3.org/1999/xlink" width="200" height="200"><defs><style type="text/css"></style></defs><path d="M897.405255 874.082572 122.154619 874.082572c-22.145369 0-40.099277-17.962094-40.099277-40.102347L82.055342 192.391798c0-22.147416 17.953907-40.099277 40.099277-40.099277 22.144346 0 40.099277 17.950837 40.099277 40.096207L162.253896 700.3129l0 0 0 93.569072 735.151359 0c22.145369 0 40.1003 17.953907 40.1003 40.099277C937.504532 856.120478 919.549601 874.082572 897.405255 874.082572zM780.07092 753.778602l-64.351634 0c-17.768689 0-32.175817-17.951861-32.175817-40.099277L683.54347 432.984389c0-22.144346 14.407128-40.099277 32.175817-40.099277l64.351634 0c17.767666 0 32.174793 17.954931 32.174793 40.099277l0 280.694937C812.245713 735.826741 797.838585 753.778602 780.07092 753.778602zM540.188504 753.778602l-65.233724 0c-18.011212 0-32.615838-17.951861-32.615838-40.099277L442.338942 272.587282c0-22.144346 14.604626-40.099277 32.615838-40.099277l65.233724 0c18.012236 0 32.615838 17.954931 32.615838 40.099277l0 441.092044C572.804343 735.826741 558.199717 753.778602 540.188504 753.778602zM323.409273 753.778602 260.527107 753.778602c-17.36346 0-31.442106-17.951861-31.442106-40.099277l0-80.199577c0-22.144346 14.077623-40.098253 31.442106-40.098253l62.883189 0c17.362436 0 31.441083 17.953907 31.441083 40.098253l0 80.199577C354.850355 735.826741 340.772732 753.778602 323.409273 753.778602z" p-id="2758"></path></svg>